<svg xmlns="http://www.w3.org/2000/svg" width="229" height="276" fill="none"><path fill="url(#a)" d="M121.5 108.5c-17.6-24.8-3-56.333 6.5-69-9.6 25.2-2.333 51.167 2.5 61 54.8 72 16.833 134-9 156 38.4-61.2 16-124.167 0-148Z"/><path fill="url(#b)" d="M49 47.5c-45.868 9.829-43.833 46-36.5 67C-11 93 0 43.5 35 38.5c28-4 41.667-21.333 45-29.5 3.5 17-10 34-31 38.5Z"/><path fill="url(#c)" d="M44.5 82c20 39.833 51.8 134.4 19 194 26.333-18 59.4-82-19-194Z"/><path fill="url(#d)" d="M190.5 55c-39.724-7.296-45.333-41-43-55 0 26.8 31 40.167 46.5 43.5 46 25.6 36.167 61 25.5 75.5-1-30-4.5-59.5-29-64Z"/><path fill="url(#e)" d="M196 168.5c-10.333-17.667-26.6-61.4-9-95-14 15.667-31.8 56.6 9 95Z"/><circle cx="117" cy="16" r="4" fill="url(#f)"/><circle cx="109" cy="250" r="3" fill="url(#g)"/><ellipse cx="115" cy="234.5" fill="url(#h)" rx="4" ry="3.5"/><circle cx="123" cy="213" r="4" fill="url(#i)"/><circle cx="124.5" cy="189.5" r="4.5" fill="url(#j)"/><circle cx="124" cy="168" r="5" fill="url(#k)"/><circle cx="119" cy="150" r="5" fill="url(#l)"/><circle cx="111.5" cy="126.5" r="5.5" fill="url(#m)"/><circle cx="104" cy="110" r="6" fill="url(#n)"/><circle cx="97" cy="87" r="7" fill="url(#o)"/><circle cx="98.5" cy="64.5" r="5.5" fill="url(#p)"/><circle cx="106.5" cy="48.5" r="5.5" fill="url(#q)"/><circle cx="114" cy="32" r="5" fill="url(#r)"/><defs><linearGradient id="a" x1="135.897" x2="135.897" y1="39.5" y2="256.5" gradientUnits="userSpaceOnUse"><stop stop-color="#FF6BB0"/><stop offset=".745" stop-color="#FF4C79"/><stop offset="1" stop-color="#FC281B"/></linearGradient><linearGradient id="b" x1="40.297" x2="40.297" y1="9" y2="114.5" gradientUnits="userSpaceOnUse"><stop stop-color="#FF6BB0"/><stop offset=".745" stop-color="#FF4C79"/><stop offset="1" stop-color="#FC281B"/></linearGradient><linearGradient id="c" x1="68.974" x2="68.974" y1="82" y2="276" gradientUnits="userSpaceOnUse"><stop stop-color="#FF6BB0"/><stop offset=".745" stop-color="#FF4C79"/><stop offset="1" stop-color="#FC281B"/></linearGradient><linearGradient id="d" x1="187.737" x2="187.737" y1="0" y2="119" gradientUnits="userSpaceOnUse"><stop stop-color="#FF6BB0"/><stop offset=".745" stop-color="#FF4C79"/><stop offset="1" stop-color="#FC281B"/></linearGradient><linearGradient id="e" x1="183.411" x2="183.411" y1="73.5" y2="168.5" gradientUnits="userSpaceOnUse"><stop stop-color="#FF6BB0"/><stop offset=".745" stop-color="#FF4C79"/><stop offset="1" stop-color="#FC281B"/></linearGradient><linearGradient id="f" x1="117" x2="117" y1="12" y2="20" gradientUnits="userSpaceOnUse"><stop stop-color="#FF6BB0"/><stop offset=".745" stop-color="#FF4C79"/><stop offset="1" stop-color="#FC281B"/></linearGradient><linearGradient id="g" x1="109" x2="109" y1="247" y2="253" gradientUnits="userSpaceOnUse"><stop stop-color="#FF6BB0"/><stop offset=".745" stop-color="#FF4C79"/><stop offset="1" stop-color="#FC281B"/></linearGradient><linearGradient id="h" x1="115" x2="115" y1="231" y2="238" gradientUnits="userSpaceOnUse"><stop stop-color="#FF6BB0"/><stop offset=".745" stop-color="#FF4C79"/><stop offset="1" stop-color="#FC281B"/></linearGradient><linearGradient id="i" x1="123" x2="123" y1="209" y2="217" gradientUnits="userSpaceOnUse"><stop stop-color="#FF6BB0"/><stop offset=".745" stop-color="#FF4C79"/><stop offset="1" stop-color="#FC281B"/></linearGradient><linearGradient id="j" x1="124.5" x2="124.5" y1="185" y2="194" gradientUnits="userSpaceOnUse"><stop stop-color="#FF6BB0"/><stop offset=".745" stop-color="#FF4C79"/><stop offset="1" stop-color="#FC281B"/></linearGradient><linearGradient id="k" x1="124" x2="124" y1="163" y2="173" gradientUnits="userSpaceOnUse"><stop stop-color="#FF6BB0"/><stop offset=".745" stop-color="#FF4C79"/><stop offset="1" stop-color="#FC281B"/></linearGradient><linearGradient id="l" x1="119" x2="119" y1="145" y2="155" gradientUnits="userSpaceOnUse"><stop stop-color="#FF6BB0"/><stop offset=".745" stop-color="#FF4C79"/><stop offset="1" stop-color="#FC281B"/></linearGradient><linearGradient id="m" x1="111.5" x2="111.5" y1="121" y2="132" gradientUnits="userSpaceOnUse"><stop stop-color="#FF6BB0"/><stop offset=".745" stop-color="#FF4C79"/><stop offset="1" stop-color="#FC281B"/></linearGradient><linearGradient id="n" x1="104" x2="104" y1="104" y2="116" gradientUnits="userSpaceOnUse"><stop stop-color="#FF6BB0"/><stop offset=".745" stop-color="#FF4C79"/><stop offset="1" stop-color="#FC281B"/></linearGradient><linearGradient id="o" x1="97" x2="97" y1="80" y2="94" gradientUnits="userSpaceOnUse"><stop stop-color="#FF6BB0"/><stop offset=".745" stop-color="#FF4C79"/><stop offset="1" stop-color="#FC281B"/></linearGradient><linearGradient id="p" x1="98.5" x2="98.5" y1="59" y2="70" gradientUnits="userSpaceOnUse"><stop stop-color="#FF6BB0"/><stop offset=".745" stop-color="#FF4C79"/><stop offset="1" stop-color="#FC281B"/></linearGradient><linearGradient id="q" x1="106.5" x2="106.5" y1="43" y2="54" gradientUnits="userSpaceOnUse"><stop stop-color="#FF6BB0"/><stop offset=".745" stop-color="#FF4C79"/><stop offset="1" stop-color="#FC281B"/></linearGradient><linearGradient id="r" x1="114" x2="114" y1="27" y2="37" gradientUnits="userSpaceOnUse"><stop stop-color="#FF6BB0"/><stop offset=".745" stop-color="#FF4C79"/><stop offset="1" stop-color="#FC281B"/></linearGradient></defs></svg>